<?xml version="1.0" standalone="no"?><!DOCTYPE svg PUBLIC "-//W3C//DTD SVG 1.1//EN" "http://www.w3.org/Graphics/SVG/1.1/DTD/svg11.dtd"><svg t="1691246702547" class="icon" viewBox="0 0 1024 1024" version="1.1" xmlns="http://www.w3.org/2000/svg" p-id="1593" xmlns:xlink="http://www.w3.org/1999/xlink" width="200" height="200"><path d="M53.76 431.7568v-15.3472c0.4224-2.1696 0.896-4.3328 1.2672-6.5088 5.472-31.8528 33.7216-58.592 65.6704-61.2352 24.2176-2.0032 48.512-3.1232 72.7744-4.5056 25.2288-1.44 50.464-2.7136 75.6992-4.0768 29.8112-1.6064 59.6224-3.2832 89.44-4.7616 3.2-0.16 4.6144-1.2864 5.7408-4.2176 27.7888-72.2944 55.5968-144.5888 83.5904-216.8064 9.248-23.8592 26.3168-39.6224 51.0144-46.784 4.4608-1.2928 9.1136-1.9328 13.6768-2.88h14.72c2.816 0.5184 5.6576 0.9216 8.4352 1.5744 27.4432 6.4384 46.0672 23.0976 56.16 49.1904 27.5904 71.3472 55.0528 142.752 82.464 214.1696 1.504 3.9296 3.616 5.6064 7.9296 5.8176 35.6736 1.7728 71.3408 3.7568 107.008 5.7024 41.312 2.2528 82.6112 4.6464 123.9296 6.7776 32.6592 1.6832 61.472 24.7808 69.728 56.3776 1.0944 4.1984 1.7344 8.5248 2.5792 12.7872v15.3472c-0.1792 0.6016-0.4544 1.1968-0.5248 1.8112-2.3296 21.1136-12.7936 37.5488-29.0176 50.7456-59.456 48.3712-118.8736 96.7872-178.3744 145.1008-3.1168 2.528-3.8976 4.9408-2.8672 8.8064 18.8672 70.6176 37.6064 141.2736 56.4096 211.9104 3.3728 12.6784 6.4832 25.2736 5.4272 38.6688-3.0528 38.688-36.8704 70.1312-75.8336 69.9392-16.3136-0.0768-31.136-4.9728-44.8256-13.8752-63.7824-41.472-127.6544-82.7968-191.4368-124.2752-3.4304-2.2336-6.048-2.3744-9.5296-0.0832-22.528 14.8032-45.184 29.4144-67.8016 44.0832-41.4848 26.8928-82.9824 53.7728-124.4672 80.6656-16.7296 10.8416-34.9248 15.8208-54.7776 12.6528-46.1824-7.3664-74.688-51.0208-62.7776-96.1088 19.7056-74.5792 39.552-149.1264 59.4496-223.6544 0.992-3.7248 0.4096-6.0416-2.6368-8.5184-59.5968-48.3648-119.1104-96.8384-178.656-145.2672-13.5424-11.0144-23.2064-24.5632-27.36-41.696-0.9088-3.7824-1.4912-7.6736-2.2272-11.5264z" p-id="1594"></path></svg>