<?xml version="1.0" standalone="no"?><!DOCTYPE svg PUBLIC "-//W3C//DTD SVG 1.1//EN" "http://www.w3.org/Graphics/SVG/1.1/DTD/svg11.dtd"><svg t="1691246733388" class="icon" viewBox="0 0 1024 1024" version="1.1" xmlns="http://www.w3.org/2000/svg" p-id="2518" xmlns:xlink="http://www.w3.org/1999/xlink" width="200" height="200"><path d="M754.464 960.2688c-17.1968-0.1408-31.392-4.608-44.4288-13.0816-44.4224-28.864-88.8832-57.664-133.3248-86.4896-20.48-13.28-40.9856-26.5216-61.3952-39.904-2.2464-1.472-3.7312-1.3568-5.9136 0.0576-64.8832 42.1632-129.8048 84.2816-194.7456 126.3552-27.68 17.9328-60.5632 17.344-87.3856-1.4272-26.0864-18.2592-37.7536-50.9568-29.376-82.5728 19.9616-75.3472 39.9424-150.688 60.0064-226.0032 0.64-2.4 0.0576-3.6288-1.7344-5.088-60.1408-48.9216-120.256-97.8816-180.352-146.8672-19.776-16.1152-29.7536-36.9536-29.312-62.496 0.6464-37.2992 29.3952-69.3952 66.368-73.7536 12.896-1.5232 25.9456-1.8112 38.9312-2.5408 30.1312-1.6896 60.2688-3.3152 90.4064-4.9472 25.344-1.3696 50.688-2.7136 76.032-4.0768 11.712-0.6272 23.424-1.3632 35.1424-1.8368 2.4256-0.096 2.688-1.632 3.2704-3.1552 16.9152-43.9168 33.8176-87.84 50.7264-131.7632 11.0912-28.8192 22.112-57.664 33.3056-86.4384 11.9808-30.8096 40.3392-49.8304 73.3632-49.4144 30.9568 0.384 58.592 19.7824 70.08 49.5168 27.9616 72.416 55.8336 144.8576 83.6288 217.3312 1.1392 2.976 2.528 3.8528 5.6512 4.0128 33.3376 1.6896 66.6624 3.6032 99.9872 5.4144 25.344 1.3824 50.688 2.7072 76.032 4.0704 19.5904 1.056 39.2 1.9584 58.7776 3.264 35.6672 2.3744 66.0288 32.0576 69.5424 67.7184 2.752 27.9488-6.7776 51.0016-28.4032 68.704-59.9936 49.1072-120.1664 97.9904-180.32 146.9056-2.0608 1.6768-2.8096 3.0208-2.0608 5.8368 20.0256 75.1104 39.9488 150.2464 59.8528 225.3888 11.9488 45.1008-16.7552 89.1392-62.8352 96.4032-3.6736 0.5888-7.424 0.6912-9.5168 0.8768z m-1.8304-63.3728c7.1616-0.5248 15.1424-7.488 12.2368-18.3488-23.6096-88.256-46.9568-176.5824-70.432-264.8768-0.5632-2.1184-0.3136-3.4112 1.4848-4.8768 59.1616-48.1024 118.272-96.2688 177.3824-144.4224 11.9872-9.7664 23.9872-19.52 35.9488-29.3184 4.48-3.6736 6.0864-8.3648 4.3968-13.9968-1.568-5.2224-5.728-8.4288-11.648-8.8704-6.0608-0.448-12.1344-0.7552-18.2016-1.0816-25.4528-1.3696-50.9056-2.7008-76.352-4.0896-33.3312-1.8112-66.656-3.6736-99.9808-5.4976-26.8352-1.472-53.664-2.9568-80.5056-4.3392-2.0864-0.1088-2.8992-0.9408-3.5776-2.7584-3.2384-8.6784-6.6112-17.3056-9.9392-25.952-29.5744-76.8-59.1488-153.6064-88.736-230.4064-2.3872-6.1952-6.5792-9.2608-12.416-9.2416-5.6512 0.0192-9.8368 3.1296-12.1856 9.1072-2.2912 5.8496-4.5632 11.7056-6.816 17.568-30.56 79.3984-61.12 158.7904-91.616 238.208-0.9152 2.3808-1.9648 3.4304-4.6848 3.5584-18.5344 0.8704-37.056 1.9584-55.584 2.9632-24.8128 1.3504-49.6256 2.6816-74.432 4.0256-30.0288 1.632-60.0576 3.2704-90.08 4.9216-18.208 0.9984-36.416 1.9712-54.6176 3.0848-5.9264 0.3584-10.0928 4.1216-11.4304 9.9136-1.4144 6.1184 1.4656 10.3552 6.016 14.0608 70.6304 57.4784 141.2224 115.0144 211.8656 172.4928 1.7216 1.4016 2.2464 2.624 1.6576 4.8192-19.6672 73.8816-39.2768 147.776-58.88 221.6768-4.0704 15.3344-8.2816 30.6304-12.0384 46.0416-1.8816 7.7184 4.6016 15.3216 12.5248 14.8032 3.0912-0.2048 6.3872-1.6832 9.0496-3.4112 76.0704-49.2032 152.0832-98.5024 228.0512-147.8656 2.3872-1.5488 3.9808-1.7152 6.4576-0.0896 20.672 13.5744 41.4464 26.976 62.1952 40.4288 55.5392 36.0128 111.0656 72.0384 166.6432 107.9808 2.5216 1.632 5.4848 2.5472 8.2432 3.7888z" p-id="2519"></path></svg>