<?xml version="1.0" standalone="no"?><!DOCTYPE svg PUBLIC "-//W3C//DTD SVG 1.1//EN" "http://www.w3.org/Graphics/SVG/1.1/DTD/svg11.dtd"><svg t="1691246671910" class="icon" viewBox="0 0 1024 1024" version="1.1" xmlns="http://www.w3.org/2000/svg" p-id="1040" xmlns:xlink="http://www.w3.org/1999/xlink" width="200" height="200"><path d="M128.2112 511.6416c0-106.5472-0.032-213.1008 0.0128-319.648 0.0256-58.8032 38.9312-109.4208 95.488-124.4096 10.6688-2.8288 21.5232-4.224 32.5632-4.224 170.6496 0 341.2992-0.064 511.9552 0.0384 60.5696 0.0384 112.6336 42.2528 125.088 101.3888 1.856 8.8 2.7776 17.9648 2.784 26.9632 0.1536 213.312 0.16 426.6304 0.0896 639.9424-0.0192 58.624-39.0208 109.1136-95.4752 124.096-10.6624 2.8288-21.5232 4.2176-32.5632 4.2176-170.4384-0.0064-340.8768 0.064-511.3152-0.0384-62.5088-0.0384-114.3424-42.9632-126.3552-104.5184-1.6-8.2048-2.1632-16.7296-2.176-25.1136-0.1472-106.2336-0.096-212.4608-0.096-318.6944z m64.0192 0.0384c0 106.3424-0.0256 212.6848 0.0704 319.0208 0.0064 5.184 0.4672 10.4896 1.6256 15.5264 6.8032 29.5616 32.3584 49.7472 62.7776 49.76 92.3712 0.0256 184.736 0.0128 277.1072 0.0128 77.7536 0 155.5136-0.0128 233.2672 0.0192 11.8848 0.0064 23.1296-2.528 33.2672-8.7424 21.4016-13.1264 31.872-32.448 31.872-57.5232-0.0064-212.0512-0.0064-424.096-0.0064-636.1344 0-0.8512-0.0064-1.7088-0.0128-2.56-0.4352-35.5456-28.6592-63.6736-64.1536-63.68-170.5536-0.0384-341.1008-0.032-511.6544 0.0512-4.7552 0-9.6192 0.5248-14.2528 1.5872-29.7088 6.816-49.888 32.384-49.8944 63.0016-0.0256 106.5536-0.0128 213.1072-0.0128 319.6608z" p-id="1041"></path><path d="M512.3648 320c74.3424 0 148.6848-0.0128 223.0272 0.0064 16.6464 0.0064 29.5808 10.8288 32.3776 26.9824 3.2 18.5024-11.2 36.2688-29.9712 36.9792-0.96 0.0384-1.92 0.032-2.88 0.032H289.4976c-15.3664 0-27.8208-8.896-31.9488-22.7712-6.144-20.6464 9.1136-41.1712 30.8224-41.2032 52.5824-0.0704 105.1712-0.0256 157.7536-0.0256h66.24zM512.4672 576c-74.5536 0-149.1136 0.0128-223.6672-0.0128-16.5312-0.0064-29.3888-10.9248-32.192-27.2-3.1488-18.24 11.296-35.9872 29.92-36.7552 1.0624-0.0448 2.1312-0.0384 3.2-0.0384 148.3648 0 296.736-0.0064 445.1008 0 15.5456 0 28.032 8.96 32.096 22.9952 5.9648 20.5824-9.2288 40.9344-30.784 40.9792-44.16 0.0832-88.3136 0.0256-132.4736 0.0256-30.4 0.0064-60.8 0.0064-91.2 0.0064zM512.0512 768c-74.3424 0-148.6848 0.0064-223.0272-0.0064-16.6464-0.0064-29.5872-10.8352-32.3776-26.9824-3.1936-18.5088 11.1936-36.2688 29.9712-36.9792 0.96-0.0384 1.92-0.032 2.88-0.032 148.4736 0 296.9472-0.0064 445.4208 0 15.3664 0 27.8144 8.896 31.9488 22.7776 6.1504 20.64-9.12 41.1712-30.8224 41.1968-54.2912 0.0704-108.5824 0.0256-162.8736 0.0256h-61.12z" p-id="1042"></path></svg>