<?xml version="1.0" standalone="no"?><!DOCTYPE svg PUBLIC "-//W3C//DTD SVG 1.1//EN" "http://www.w3.org/Graphics/SVG/1.1/DTD/svg11.dtd"><svg t="1691246757326" class="icon" viewBox="0 0 1024 1024" version="1.1" xmlns="http://www.w3.org/2000/svg" p-id="3443" xmlns:xlink="http://www.w3.org/1999/xlink" width="200" height="200"><path d="M129.3184 472.7296c1.4848-9.5936 2.7776-19.5264 4.5824-29.3632 10.176-55.6672 31.4496-106.7776 64.48-152.704 54.7264-76.1024 127.584-126.2528 218.3168-150.016 40.5568-10.624 81.8816-14.0032 123.6928-10.7264 83.52 6.5472 157.2288 37.056 220.9984 91.3024 38.0544 32.3648 68.288 71.04 91.5136 115.2768 10.9376 20.8384-0.9408 42.592-20 47.3536-15.0144 3.7568-29.3376-3.4624-37.2928-18.336-43.424-81.1968-109.3248-134.976-197.6896-160.8576-35.6288-10.432-72.1984-14.048-109.1904-11.0208-91.9296 7.5264-167.4688 47.0144-226.048 118.2016-35.1168 42.6752-56.832 91.7568-66.4512 146.176-0.6336 3.5648-1.0688 7.168-1.5808 10.752-0.0576 0.4032-0.0064 0.8128-0.0064 2.0288 1.3568-1.5744 2.3232-2.6304 3.2192-3.7376 12.4352-15.4048 33.216-17.5872 47.488-4.9792 14.1888 12.5312 14.6048 33.76 0.704 47.7888-17.8688 18.0288-35.8336 35.968-53.888 53.8112-17.792 17.5872-45.4912 17.568-63.296-0.0256-15.776-15.5968-31.3856-31.3664-47.0912-47.0336-1.9584-1.9584-4-3.84-6.0992-5.6448-14.1312-12.192-15.3856-33.2992-2.752-46.8096 12.6272-13.504 33.7728-13.6512 46.8992-0.3968 3.0656 3.0848 6.3296 5.984 9.4912 8.96zM828.3904 556.2688c-2.112 2.2464-3.5392 3.808-5.0112 5.3248-9.6 9.8688-23.7504 12.7872-36.192 7.4816-12.3904-5.2864-20.1856-17.6384-19.5584-31.3344 0.3904-8.576 3.8784-15.84 10.0096-21.8368 9.6-9.3952 19.232-18.7648 28.7872-28.2112 8.4928-8.3968 16.8768-16.9088 25.3568-25.3248 18.2912-18.1504 45.92-18.1696 64.224 0.0128 17.7856 17.664 35.5264 35.3728 53.2032 53.1392 9.1392 9.184 12.6528 20.1664 9.0048 32.7936-3.3728 11.6608-11.2064 19.3152-22.976 22.2656-13.1008 3.2896-24.1536-0.6912-33.0496-10.8032-2.5728-2.9248-5.2032-5.7984-8.2048-9.1392-1.2032 8.512-2.176 16.288-3.424 24.0192-7.8528 48.7488-24.3456 94.4384-50.1888 136.48-50.7712 82.6048-122.4064 138.976-214.8864 168.3968-46.56 14.8096-94.3744 20.096-143.0528 16.0768-101.5552-8.384-186.72-50.5408-255.7376-125.3632-22.6816-24.5888-41.2736-52.096-56.7488-81.7216-8.5888-16.4416-2.624-35.9872 13.4272-44.1792 16.192-8.2624 34.72-1.6384 43.6352 14.9376 47.8656 88.9216 120.7744 145.7024 219.6416 166.752 164.1216 34.944 327.9872-65.1648 372.96-226.72 3.616-12.9984 5.7536-26.4128 8.5504-39.6352 0.1664-0.8192 0.1216-1.664 0.2304-3.4112z" p-id="3444"></path></svg>