<?xml version="1.0" standalone="no"?><!DOCTYPE svg PUBLIC "-//W3C//DTD SVG 1.1//EN" "http://www.w3.org/Graphics/SVG/1.1/DTD/svg11.dtd"><svg t="1691246752486" class="icon" viewBox="0 0 1024 1024" version="1.1" xmlns="http://www.w3.org/2000/svg" p-id="3288" xmlns:xlink="http://www.w3.org/1999/xlink" width="200" height="200"><path d="M512.3072 130.1376h318.7008c61.536 0 113.0368 41.0176 126.3104 101.0624 1.9392 8.7744 2.8608 17.952 2.8672 26.9504 0.1664 169.8048 0.1792 339.6096 0.0896 509.4144-0.032 61.9072-43.9168 114.56-104.7744 125.856-7.3984 1.376-15.04 2.0736-22.5664 2.0736-213.9648 0.1088-427.9232 0.1216-641.888 0.064-61.9392-0.0192-115.6416-45.7024-125.4848-106.6752-1.1648-7.232-1.8176-14.6304-1.824-21.952-0.1024-169.376-0.1024-338.752-0.064-508.128 0.0128-62.3744 43.6544-115.1232 104.7936-126.4896 7.8144-1.4528 15.8912-2.0736 23.8464-2.0864 106.6752-0.1344 213.3312-0.0896 319.9936-0.0896zM127.6736 508.7936c91.5904 0.896 169.4912 33.6704 234.1952 98.1632 63.4112-81.6 142.1184-143.2064 237.4656-183.0848 95.2768-39.8528 194.3616-52.4928 296.9792-40.3136v-2.5408c0-41.1712 0.0256-82.336-0.0448-123.5072-0.0064-3.5008-0.3264-7.0528-0.9856-10.4832-6.0352-31.6288-31.648-52.8832-64.0512-52.8896-212.7744-0.0448-425.5552-0.0256-638.3296 0.0128-4.032 0-8.1344 0.2048-12.0896 0.9408-31.7632 5.952-53.1328 31.8336-53.1392 64.192-0.0064 81.9136 0 163.8208 0 245.7344v3.776z m768.64-60.6784c-104.0192-13.8048-203.3856 0.7424-297.792 46.2976-79.232 38.2336-144.1856 93.632-195.648 164.832 32.9664 52.9024 49.5488 110.1632 49.9712 172.3584h3.3664c124.7808 0 249.5552 0.0064 374.336-0.0384 4.2432 0 8.5696-0.1792 12.7232-0.9664 31.808-6.0224 53.0304-31.8208 53.0368-64.256 0.0064-104.7296 0-209.4592 0-314.1824 0.0064-1.1776 0.0064-2.3424 0.0064-4.0448z m-507.2256 383.488c-1.9456-78.5024-31.104-144.1664-90.1376-195.6032-48.8512-42.56-106.3808-62.7904-171.168-63.104-0.0512 1.152-0.1024 1.6768-0.1024 2.208 0 64.512-0.1024 129.024 0.16 193.5424 0.0256 6.688 1.4144 13.6384 3.552 20 8.864 26.4192 33.056 42.9376 62.1056 42.9504 63.872 0.032 127.744 0.0064 191.6224 0.0064h3.968z" p-id="3289"></path><path d="M446.3936 385.2992c-0.0896 69.2096-56.6016 125.76-125.5552 125.6384-69.6832-0.1216-126.0416-56.448-125.9648-125.8752 0.0768-69.4592 56.5632-125.6896 126.2016-125.6448 68.9728 0.0512 125.408 56.736 125.3184 125.8816z m-187.52-0.3136c-0.0832 34.0352 27.4368 61.8048 61.408 61.952 34.1952 0.1472 62.0416-27.4496 62.112-61.5552 0.0704-34.048-27.4496-61.824-61.4016-61.9584-34.1952-0.1408-62.0352 27.4496-62.1184 61.5616z" p-id="3290"></path></svg>