<?xml version="1.0" standalone="no"?><!DOCTYPE svg PUBLIC "-//W3C//DTD SVG 1.1//EN" "http://www.w3.org/Graphics/SVG/1.1/DTD/svg11.dtd"><svg t="1691246705893" class="icon" viewBox="0 0 1024 1024" version="1.1" xmlns="http://www.w3.org/2000/svg" p-id="1745" xmlns:xlink="http://www.w3.org/1999/xlink" width="200" height="200"><path d="M511.808 960.0896c-85.1136 0-170.2208 0.0064-255.3344 0-62.2848-0.0064-115.072-43.6224-126.5088-104.7808-1.344-7.1936-2.016-14.6048-2.0672-21.9264-0.2176-32.9536-0.2496-65.9136-0.064-98.8672 0.5248-92.9728 58.0736-175.1872 145.7664-208.3456 24.9792-9.4464 50.8864-14.048 77.5744-14.0544 107.5072-0.032 215.0208-0.288 322.528 0.0896 98.6176 0.3456 185.3056 66.1184 213.0944 160.8384 5.888 20.064 8.9344 40.5696 8.9856 61.4784 0.0768 32.9536 0.1472 65.9136-0.0064 98.8672-0.288 61.568-45.9008 114.9504-106.688 124.8256-7.2256 1.1712-14.624 1.7984-21.9456 1.8112-85.1136 0.1024-170.2272 0.064-255.3344 0.064z m0-64c84.7936 0 169.5872 0.0256 254.3808-0.0704 5.2928-0.0064 10.7072-0.4288 15.8528-1.6064 29.5552-6.7776 49.7216-32.3712 49.7536-62.7776 0.032-31.36 0.2752-62.72-0.1344-94.0736-0.1472-11.0272-1.1008-22.1888-3.1296-33.024-13.6256-72.8192-79.808-128.1664-153.8688-128.3584-107.8336-0.2816-215.6672-0.1408-323.4944 0.0128-9.0112 0.0128-18.1312 0.9024-27.0208 2.4256-76.096 12.992-132.2176 79.5648-132.3392 156.7168-0.0512 32.1024-0.0768 64.2112 0.064 96.3136 0.0192 4.9664 0.5248 10.048 1.6512 14.88 6.8608 29.4144 32.352 49.5296 62.6176 49.5424 85.2288 0.0448 170.4448 0.0192 255.6672 0.0192zM511.8336 447.4496c-106.4896-0.2112-192.192-85.8816-192.032-191.968 0.16-106.08 86.24-191.6096 192.608-191.392 106.624 0.224 192.4096 86.1248 192.032 192.288-0.3776 106.0032-86.3424 191.2832-192.608 191.072z m0.0768-63.9808c70.6304 0.128 128.32-56.5952 128.5312-126.368 0.2176-71.7696-56.512-128.9088-128.1088-129.0304-70.7648-0.128-128.3968 56.6848-128.5312 126.688-0.1344 71.5584 56.6272 128.5888 128.1088 128.7104z" p-id="1746"></path></svg>